<?xml version="1.0" encoding="UTF-8"?>
<svg width="249px" height="90px" viewBox="0 0 249 90" version="1.1" xmlns="http://www.w3.org/2000/svg" xmlns:xlink="http://www.w3.org/1999/xlink">
    <title>3946CCA8-6F9B-43F2-B39D-C0D18C9F5BD7@1x</title>
    <g id="🛠-Components" stroke="none" stroke-width="1" fill="none" fill-rule="evenodd">
        <g id="logo-dft" fill="#01579b" fill-rule="nonzero">
            <g id="Group-2-Copy">
                <path d="M98.0859375,81.9 L98.0859375,17.915625 L115.97168,17.915625 C121.21582,17.915625 125.917969,19.1094727 130.078125,21.497168 C134.238281,23.8848633 137.48291,27.3052734 139.812012,31.7583984 C142.141113,36.2115234 143.305664,41.2798828 143.305664,46.9634766 L143.305664,52.8521484 C143.305664,58.5650391 142.148438,63.6333984 139.833984,68.0572266 C137.519531,72.4810547 134.260254,75.8941406 130.056152,78.2964844 C125.852051,80.6988281 121.025391,81.9 115.576172,81.9 L98.0859375,81.9 Z M103.491211,22.5298828 L103.491211,77.3296875 L115.620117,77.3296875 C122.358398,77.3296875 127.763672,75.0958008 131.835938,70.6280273 C135.908203,66.1602539 137.944336,60.1177734 137.944336,52.5005859 L137.944336,46.8755859 C137.944336,39.5220703 135.9375,33.6333984 131.923828,29.2095703 C127.910156,24.7857422 122.62207,22.5591797 116.05957,22.5298828 L103.491211,22.5298828 Z" id="Shape"></path>
                <polygon id="Path" points="190.854492 52.0171875 161.015625 52.0171875 161.015625 81.9 155.610352 81.9 155.610352 17.915625 195.249023 17.915625 195.249023 22.5298828 161.015625 22.5298828 161.015625 47.4029297 190.854492 47.4029297"></polygon>
                <polygon id="Path" points="249.125977 22.5298828 227.197266 22.5298828 227.197266 81.9 221.791992 81.9 221.791992 22.5298828 199.907227 22.5298828 199.907227 17.915625 249.125977 17.915625"></polygon>
                <path d="M51.6327666,0 C54.6376263,0 56.3943694,2.15844822 56.5137997,5.28154462 C56.5884686,7.23413117 56.0883632,9.78679336 55.0391584,13.0319375 L54.8960402,13.467715 L55.3850502,13.4390055 L56.0313824,13.4052491 L56.347777,13.3906582 L56.347777,13.3906582 L56.9671322,13.366083 C57.1706131,13.3589193 57.371133,13.3527865 57.5687209,13.3476931 L58.1527177,13.3355401 C60.5496304,13.2979672 62.4929667,13.4241542 64.0395514,13.7308847 L64.2134087,13.7664791 C67.3186095,14.4225077 69.3585455,16.0292725 69.4268038,18.7444933 L69.4285714,18.8859251 L69.4285714,85.3562654 C69.4285714,87.7574034 67.5091173,89.711616 65.116416,89.7771707 L64.992241,89.7788698 L39.4828659,89.7788698 L39.4833409,49.642225 C39.4833409,47.9680694 40.8163621,46.6042943 42.4820121,46.548197 L42.5887723,46.5464019 L47.0588188,46.5461425 L35.7124601,35.16457 L24.3656577,46.5461425 L28.8361479,46.5464019 C30.5154993,46.5464019 31.883507,47.8752987 31.9397785,49.5358462 L31.9415792,49.6422794 L31.9410259,66.117198 C33.018878,66.9240381 33.7161114,68.208857 33.7161114,69.6560197 C33.7161114,72.0985566 31.7298986,74.0786241 29.2797809,74.0786241 C26.8296633,74.0786241 24.8434505,72.0985566 24.8434505,69.6560197 C24.8434505,68.209257 25.5402985,66.9247483 26.6176423,66.1178671 L26.6179827,51.8532678 L19.0335261,51.8535272 C18.2587932,51.8535272 17.5137813,51.5649197 16.9432532,51.0472223 L16.8444125,50.9534979 C15.6555923,49.7756172 15.6228031,47.8767752 16.7503673,46.6591885 L16.8309173,46.5753636 L33.5709927,29.7842045 L33.7452116,29.6308508 L33.814217,29.5777003 C35.0174674,28.6509115 36.7180436,28.7301119 37.828636,29.7620826 L37.9150688,29.8455324 L54.5940028,46.5753636 C55.1722612,47.1553866 55.4968254,47.9399367 55.4968254,48.7577041 C55.4968254,50.4318596 54.1638042,51.7956347 52.4981542,51.851732 L52.391394,51.8535272 L44.8064938,51.8532678 L44.8060502,84.4717445 L64.1049749,84.4717445 L64.1049749,19.2564619 C63.9126131,19.1696659 63.6213459,19.073251 63.2300988,18.9846325 L63.1097261,18.9582986 C62.6828307,18.8681095 62.1890831,18.7966739 61.6284157,18.7442668 L61.2839842,18.7151081 L61.1057447,18.7022454 L61.1057447,18.7022454 L60.7372161,18.6799618 L60.3526186,18.6622779 L59.9519489,18.649207 L59.5352039,18.6407623 L59.1023803,18.636957 C59.028903,18.6367101 58.9547556,18.6366571 58.879938,18.6367982 L58.3062401,18.6415008 L58.3062401,18.6415008 L57.7074054,18.6535092 L57.210235,18.6683933 L56.6969697,18.6879828 L56.1676063,18.7122908 L55.6221416,18.7413305 L55.0605724,18.7751152 L54.7737475,18.7937909 C53.1057351,18.9050796 51.7924048,18.6432508 50.6378571,17.4922752 C49.3783533,16.2366683 48.9505096,14.3733781 49.5366842,12.696578 L49.6997613,12.2239526 L49.8542667,11.76368 C49.8793046,11.6880022 49.9039865,11.6128428 49.9283127,11.5382037 L50.1376609,10.8805485 L50.1376609,10.8805485 L50.2665991,10.4578674 L50.3870643,10.0478945 L50.4990811,9.65071871 L50.6026744,9.26642889 L50.7423239,8.71434977 L50.7423239,8.71434977 L50.824966,8.36266368 L50.863159,8.19176396 L50.863159,8.19176396 L50.9495431,7.77902178 L50.9495431,7.77902178 L51.0229677,7.38714293 L51.072409,7.08877809 L51.1136118,6.80396572 C51.1816134,6.29428713 51.2082038,5.85338367 51.1940675,5.48371958 L51.1897344,5.39456242 L51.1832752,5.30712531 L7.31994523,5.30712531 L7.32026716,81.5451037 C8.52686786,82.3842813 9.31629393,83.7783684 9.31629393,85.3562654 C9.31629393,87.9209292 7.2307705,90 4.65814696,90 C2.08552343,90 0,87.9209292 0,85.3562654 C0,83.7781746 0.789619952,82.3839389 1.99647126,81.5447946 L1.9963487,4.42260442 C1.9963487,2.02146638 3.91580283,0.0672537857 6.3085041,0.00169907508 L6.43267914,0 L51.6327666,0 Z" id="Path"></path>
            </g>
        </g>
    </g>
</svg>